ffmpeg version 3.4.8-0ubuntu0.2 Copyright (c) 2000-2020 the FFmpeg developers
  built with gcc 7 (Ubuntu 7.5.0-3ubuntu1~18.04)
  configuration: --prefix=/usr --extra-version=0ubuntu0.2 --toolchain=hardened --libdir=/usr/lib/x86_64-linux-gnu --incdir=/usr/include/x86_64-linux-gnu --enable-gpl --disable-stripping --enable-avresample --enable-avisynth --enable-gnutls --enable-ladspa --enable-libass --enable-libbluray --enable-libbs2b --enable-libcaca --enable-libcdio --enable-libflite --enable-libfontconfig --enable-libfreetype --enable-libfribidi --enable-libgme --enable-libgsm --enable-libmp3lame --enable-libmysofa --enable-libopenjpeg --enable-libopenmpt --enable-libopus --enable-libpulse --enable-librubberband --enable-librsvg --enable-libshine --enable-libsnappy --enable-libsoxr --enable-libspeex --enable-libssh --enable-libtheora --enable-libtwolame --enable-libvorbis --enable-libvpx --enable-libwavpack --enable-libwebp --enable-libx265 --enable-libxml2 --enable-libxvid --enable-libzmq --enable-libzvbi --enable-omx --enable-openal --enable-opengl --enable-sdl2 --enable-libdc1394 --enable-libdrm --enable-libiec61883 --enable-chromaprint --enable-frei0r --enable-libopencv --enable-libx264 --enable-shared
  libavutil      55. 78.100 / 55. 78.100
  libavcodec     57.107.100 / 57.107.100
  libavformat    57. 83.100 / 57. 83.100
  libavdevice    57. 10.100 / 57. 10.100
  libavfilter     6.107.100 /  6.107.100
  libavresample   3.  7.  0 /  3.  7.  0
  libswscale      4.  8.100 /  4.  8.100
  libswresample   2.  9.100 /  2.  9.100
  libpostproc    54.  7.100 / 54.  7.100
[rawvideo @ 0x558189d38a20] Estimating duration from bitrate, this may be inaccurate
Input #0, rawvideo, from '../../SVC-Encoder-20220109T061506Z-001/SVC-Encoder/Dataset/RollerCoaster/ERP_8x8/tile_yuv/Tile_61_480x240.yuv':
  Duration: 00:00:10.00, start: 0.000000, bitrate: 41472 kb/s
    Stream #0:0: Video: rawvideo (I420 / 0x30323449), yuv420p, 480x240, 41472 kb/s, 30 tbr, 30 tbn, 30 tbc
Stream mapping:
  Stream #0:0 -> #0:0 (rawvideo (native) -> h264 (libx264))
Press [q] to stop, [?] for help
[libx264 @ 0x558189d45c60] using cpu capabilities: MMX2 SSE2Fast LZCNT SSSE3 SSE4.2 AVX
[libx264 @ 0x558189d45c60] profile High, level 2.1
Output #0, rawvideo, to 'RollerCoaster_Tile_61_480x240_x264_QP_20.h264':
  Metadata:
    encoder         : Lavf57.83.100
    Stream #0:0: Video: h264 (libx264), yuv420p, 480x240, q=-1--1, 30 fps, 30 tbn, 30 tbc
    Metadata:
      encoder         : Lavc57.107.100 libx264
    Side data:
      cpb: bitrate max/min/avg: 0/0/0 buffer size: 0 vbv_delay: -1
frame=  151 fps=0.0 q=26.0 PSNR=Y:nan U:nan V:nan *:nan size=      92kB time=00:00:03.60 bitrate= 210.3kbits/s speed= 7.1x    frame=  299 fps=296 q=26.0 PSNR=Y:nan U:nan V:nan *:nan size=     205kB time=00:00:08.53 bitrate= 196.9kbits/s speed=8.44x    frame=  300 fps=266 q=26.0 LPSNR=Y:inf U:inf V:inf *:inf size=     229kB time=00:00:09.93 bitrate= 189.1kbits/s speed=8.81x    
video:229kB audio:0kB subtitle:0kB other streams:0kB global headers:0kB muxing overhead: 0.000000%
[libx264 @ 0x558189d45c60] frame I:2     Avg QP:18.81  size: 10717  PSNR Mean Y:49.92 U:53.94 V:48.88 Avg:50.16 Global:50.12
[libx264 @ 0x558189d45c60] frame P:78    Avg QP:19.55  size:  1810  PSNR Mean Y:48.15 U:52.21 V:48.15 Avg:48.61 Global:48.58
[libx264 @ 0x558189d45c60] frame B:220   Avg QP:25.46  size:   328  PSNR Mean Y:47.79 U:52.05 V:47.96 Avg:48.29 Global:48.24
[libx264 @ 0x558189d45c60] consecutive B-frames:  0.7%  4.0%  2.0% 93.3%
[libx264 @ 0x558189d45c60] mb I  I16..4: 30.9% 21.1% 48.0%
[libx264 @ 0x558189d45c60] mb P  I16..4:  2.7%  0.6%  0.5%  P16..4: 42.6% 16.3%  6.2%  0.0%  0.0%    skip:31.0%
[libx264 @ 0x558189d45c60] mb B  I16..4:  0.1%  0.0%  0.0%  B16..8: 38.3%  3.9%  0.2%  direct: 0.2%  skip:57.2%  L0:48.7% L1:48.5% BI: 2.8%
[libx264 @ 0x558189d45c60] 8x8 transform intra:17.2% inter:72.3%
[libx264 @ 0x558189d45c60] coded y,uvDC,uvAC intra: 30.6% 65.9% 31.0% inter: 7.2% 9.9% 0.4%
[libx264 @ 0x558189d45c60] i16 v,h,dc,p: 20% 63% 14%  3%
[libx264 @ 0x558189d45c60] i8 v,h,dc,ddl,ddr,vr,hd,vl,hu:  3% 43% 46%  1%  1%  0%  3%  0%  3%
[libx264 @ 0x558189d45c60] i4 v,h,dc,ddl,ddr,vr,hd,vl,hu:  6% 75%  9%  2%  1%  1%  3%  1%  4%
[libx264 @ 0x558189d45c60] i8c dc,h,v,p: 26% 66%  3%  4%
[libx264 @ 0x558189d45c60] Weighted P-Frames: Y:2.6% UV:0.0%
[libx264 @ 0x558189d45c60] ref P L0: 51.7%  9.0% 30.2%  8.9%  0.1%
[libx264 @ 0x558189d45c60] ref B L0: 69.2% 24.6%  6.2%
[libx264 @ 0x558189d45c60] ref B L1: 88.6% 11.4%
[libx264 @ 0x558189d45c60] PSNR Mean Y:47.901 U:52.105 V:48.018 Avg:48.388 Global:48.341 kb/s:187.85
